<svg height="42" viewBox="0 0 42 42" width="42" xmlns="http://www.w3.org/2000/svg" xmlns:xlink="http://www.w3.org/1999/xlink"><defs><path id="a" d="m13 26c-7.17970175 0-13-5.8202983-13-13 0-7.17970175 5.82029825-13 13-13 7.1797017 0 13 5.82029825 13 13 0 7.1797017-5.8202983 13-13 13zm-2.2075153-9.206698c-.3902985.3907498-.3899326 1.0239147.0008173 1.4142133.3907498.3902985 1.0239147.3899326 1.4142133-.0008173l4.5-4.5052038c.3902987-.3907501.3899326-1.0239153-.0008177-1.4142138l-4.5-4.49479615c-.3907502-.39029829-1.0239151-.38993198-1.4142133.00081817-.3902983.39075016-.389932 1.02391504.0008181 1.41421333l3.7924838 3.78809815z"/><filter id="b" height="157.7%" width="157.7%" x="-28.8%" y="-25%"><feOffset dy="1" in="SourceAlpha" result="shadowOffsetOuter1"/><feGaussianBlur in="shadowOffsetOuter1" result="shadowBlurOuter1" stdDeviation="2"/><feColorMatrix in="shadowBlurOuter1" result="shadowMatrixOuter1" values="0 0 0 0 0 0 0 0 0 0.0784313725 0 0 0 0 0.2 0 0 0 0.24 0"/><feMorphology in="SourceAlpha" operator="dilate" radius=".5" result="shadowSpreadOuter2"/><feOffset in="shadowSpreadOuter2" result="shadowOffsetOuter2"/><feColorMatrix in="shadowOffsetOuter2" result="shadowMatrixOuter2" values="0 0 0 0 0 0 0 0 0 0.0784313725 0 0 0 0 0.2 0 0 0 0.04 0"/><feMerge><feMergeNode in="shadowMatrixOuter1"/><feMergeNode in="shadowMatrixOuter2"/></feMerge></filter></defs><g fill="none" fill-rule="evenodd" transform="translate(8 8)"><circle cx="13" cy="13" fill="#6f7985" r="13"/><use fill="#000" filter="url(#b)" xlink:href="#a"/><use fill="#fff" xlink:href="#a"/></g></svg>